/* XPM */
static char *result[] = {
/* columns rows colors chars-per-pixel */
"64 64 160 2 ",
"   c #050202",
".  c #080404",
"X  c #0C0A04",
"o  c #05030B",
"O  c #0B0609",
"+  c #0D090C",
"@  c #110D0E",
"#  c #061300",
"$  c #0C1200",
"%  c #121306",
"&  c #13130D",
"*  c #020017",
"=  c #0E0513",
"-  c #000B11",
";  c #0E0B11",
":  c #00001C",
">  c #120D13",
",  c #150D1A",
"<  c #0B1015",
"1  c #0D131B",
"2  c #151214",
"3  c #181517",
"4  c #191915",
"5  c #161219",
"6  c #19141B",
"7  c #1D1A1D",
"8  c #201E1F",
"9  c #23231E",
"0  c #130026",
"q  c #170D21",
"w  c #1C1521",
"e  c #151B22",
"r  c #1F1A22",
"t  c #1C1329",
"y  c #151E2A",
"u  c #211725",
"i  c #211C24",
"p  c #241C2A",
"a  c #281D2F",
"s  c #261B34",
"d  c #241A38",
"f  c #1A222A",
"g  c #172533",
"h  c #1F2B39",
"j  c #242125",
"k  c #262920",
"l  c #26212A",
"z  c #29222D",
"x  c #2C292D",
"c  c #232533",
"v  c #2D2532",
"b  c #2E2A33",
"n  c #2D253B",
"m  c #2E2838",
"M  c #302B36",
"N  c #31243C",
"B  c #352B3D",
"V  c #343137",
"C  c #36323A",
"Z  c #39353E",
"A  c #3F423D",
"S  c #000044",
"D  c #180040",
"F  c #281641",
"G  c #2E1C46",
"H  c #381353",
"J  c #322049",
"K  c #38234E",
"L  c #373147",
"P  c #3B3343",
"I  c #3E3B42",
"U  c #3D344B",
"Y  c #303D4D",
"T  c #3F2959",
"R  c #3E3051",
"E  c #423F46",
"W  c #44384E",
"Q  c #412D57",
"!  c #453753",
"~  c #463B53",
"^  c #483A5A",
"/  c #573F6E",
"(  c #45434A",
")  c #474452",
"_  c #4D4A53",
"`  c #4D425C",
"'  c #514C5B",
"]  c #4E4461",
"[  c #544763",
"{  c #595665",
"}  c #5D5A63",
"|  c #5B556A",
" . c #584872",
".. c #645B6A",
"X. c #645572",
"o. c #695D76",
"O. c #63567B",
"+. c #6B5F7C",
"@. c #65616C",
"#. c #676372",
"$. c #6A6474",
"%. c #6E667D",
"&. c #71657C",
"*. c #747177",
"=. c #76727B",
"-. c #6B5480",
";. c #705590",
":. c #725A92",
">. c #6E6980",
",. c #746E83",
"<. c #73668A",
"1. c #776C8A",
"2. c #767187",
"3. c #7C7687",
"4. c #7C6E90",
"5. c #7A6898",
"6. c #847A93",
"7. c #85789E",
"8. c #8C7C9B",
"9. c #836CA5",
"0. c #8475A0",
"q. c #8D7EA6",
"w. c #917BA5",
"e. c #86818A",
"r. c #8A839A",
"t. c #908B99",
"y. c #8E81A3",
"u. c #958BA6",
"i. c #988FA9",
"p. c #9D99A2",
"a. c #9F9AAA",
"s. c #9C82B6",
"d. c #A195B4",
"f. c #A79BBD",
"g. c #A899BA",
"h. c #A7A1AB",
"j. c #B0A1BE",
"k. c #A18DC1",
"l. c #A694C2",
"z. c #B4A3C6",
"x. c #B1ABC3",
"c. c #B3A7C8",
"v. c #B7ACC9",
"b. c #B5A0D6",
"n. c #BEABE2",
"m. c #C1B5C9",
"M. c #CBBBDD",
"N. c #C8B8E2",
"B. c #C6B0E8",
"V. c #DBBDF9",
"C. c #C6C1D1",
"Z. c #CCC4E2",
"A. c #D4CBE6",
"S. c #D5C7EA",
"D. c #D6C2F7",
"F. c #E2D9EF",
"G. c #E8D9F6",
"H. c #E8D8FF",
"J. c #F4E4FF",
"K. c #F9EFFF",
/* pixels */
"    h 1     . . . . . . o . . o .   .     .     .     .           .                                 o     .                     ",
"    O .   . .     . . . . . .   . .   .       .   .       .                                                                     ",
".         .   . . . . . . . .   . o   .   .     o o .                         . .               .             . .               ",
"    . . ; . .     o . . . . . .   . . . o . . . .   .   . .           .   .       .         .                         .       O ",
"  .         . .   . . .     .     .   . o . .                                                 .                     O o     .   ",
"  . . o l .   . . .       . .     . o         .   < e             .       o .     ; .           .       2 O             o O   b ",
". .   > @.2   O       .   .           . .     .   o +     . 7 2       . .   .     p 5   .             O     O             O   E ",
"        2   O O   o . . . 7 5 o   2 6   . . . o .       +       2   . . o   . .       .     .       O   { I   <                 ",
"  .         O O . . . .       ;   ; 2                 3   a j...  2         .   .       .     .     O   _ V   +       .         ",
"  .     . .       . o     3.$.  2       . .   . . .   5   z m.o.  5   . .           o w   .           O     +       . .       . ",
"O X       . .   .   ;     v.u.  7 . .     . .     . X   O       2   . .   . 5 .   O               . .   < +         O . .   .   ",
"> >   o   . . .   . . .   s q   + . .   .       .   . .   O 9 2             w ; ;   n <.,   o       .   7 O     .   . .         ",
"+ @     . .   .       .       o   o O +   5 v     .         , O   . . .   O     j   7.H.O.  5   . .   . .         @     ;       ",
"    &           X   o   v i   . . .   .   O >   .   ; O     z O   o   .     C a 5   R 0.t   .   O +   .   .   O 4   p.*.  2     ",
"e.h.  7 . . . . .   . O i 6   . O   +         .   O     O           .   >   ~ v   >       O   .   X o     .   . 2   =.}   +   . ",
"} *.  3 o .   . .     ;   o .   3 r   . O   .   O   P v   O .       . . O O     o > w r ;       . o .   .         2     2       ",
"    2     + z .     .   O .   5     l >       . 6   8.&.  >   . .   .     . . . X O     5   U b   . . . . .   . +   7 3       < ",
"+ 2   . O   O   .     . .   O   ^ O.v l     . . .   = o       . .   O O   . .           5 i + ;     . o   . . o O     . . .   f ",
"    O .   2   . . . O .   o 7   z.G.D   r > O O   O     . .   .   . . > .     . . .     O O     . . . o .   . O   .       .   2 ",
"  O     U   5     . .     . 2   X.8.    = . O O O   O + O O   O w         > 5 ; O           X @   . .   . .     . .   . .       ",
". 2   i.A.`   2   .   o     O r     X O O     . O   O = O     = ! .   .   ; O ; 7 .   ; .   . . o   + ;     O O   . . . X .     ",
"  2   6.n.U   + . .     . ;   5 ; 6     O O       . . . o   + .   O   .     &     #       .   o     O >     O 5         . . . o ",
"  o     :   5       . 7     O   ;   a w   > > .   . . . . + O O , +   .   r   6.j.  k ( ,     + X   .   + >     . . O 2 X   . . ",
"    . 7 4 5   . .   2 A 6 v   O O   ` m   . O . O .         .   O ;   O O 5   o.8.  7 Z ,     X X     ; % # w     O       O     ",
"  .   .   r v     2     v `       >     O     . O   O B O O O   5 w   . .   <     &     o 3 O o     =     S   ; ;   L 6.p   .   ",
".     .   > 5   w   +.q.        ;     o .   .     . u W ;         @ .   . . + > 5   ; > . 2     . . $   g.Z.T   z   >.S.]   2   ",
"      . .       i   4.l.  3   . . .           .         O . . O O   r w     >   O ; O > .   z i   ; $ : M.K.;.v 3   ; ]   O     ",
". .   .   . >     +                   . . O > =           O O O O   > ; . +   O +   + + + o b r   6 ;   Q ;.  i   o       .     ",
"  . .   .           .   > 6 O , . .       .   [ w X   / G   O     . .     + ; 5 t   . .   .     .     O     O       + r .     . ",
".     .     O O .   . o + > O   p @ > . 1 1   , q   H V.s.  r     . . o 5 r   X   5 o   .     .   . . O > 3 O O       .   .     ",
"          .     .   O . . +   O O . > . c g .   O   0 w.-.  ,     ;   L `   >   D   O     > >   .     O .   .   .       .   .   ",
"  . .   O   M l   . 5     6 2 .   .     O . . O   >       +   ;   .   > r w   5.D. .  w   5 ;   .   .   . . . .   X   ; ;   .   ",
"  .   . .   5 >   .       . .   O .   + .       +   a ! . .       . .     q   O.b.!   5     2 >       .   . . .   . . . . .   . ",
"    .     .       .   P 6     . = O .   . .   . O   w N   .   .         .   ;       ;     +     +       . X   .   o O . .   .   ",
". .   .     . .   > . w ;   O         . .         ;     o   .   . +     p O   > 7 =   . O   W b   . .   ; -   . X   X . + O .   ",
"    .   .     .   O O     ;   s R r >     . ; .     . @       . + &     . ; .   O   > u 5   u.%.  +   . . O .     . . .     O   ",
"    .                 O . j   f.N.K & 6 5 . w .               2 o     w > u 6   . . .   .   = =   r p   . > .   o . .   b 7   . ",
".     O 2   . .   . . . o 6   1.y.  3 O >     . = .   .   .       .   > O           .     O   .   r p           +   .   a.#.  f ",
"    @       o . .           e     . o     . .       O   O   , q.N   O     . .   . +   .     O . .     O   . . .     X   _ V   7 ",
"  +   ) 2.  @ .     y . h ; y r 7 O   > .     > F :   . >     X.r   . . .       + 7     .   > +   O .   X .   . O X   O     +   ",
"  7   r.Z.d   o l m g 7 e O   . .   . O ; O     n.q.  l   L N     O       . + O     . .   .     , . . . . . O   O O     7 2   . ",
"  O   p `   >   6 r   o   . . O . . . . . O +   q.+.  w   v p . O   .     . O . . r + . . .   5 X >   > . . + .   X .         . ",
". . O     @   .     O   o   O >           .   +     2   O     O   . .       .   2 B .   .   o o *   X ;   .   . .       . . X   ",
"  .   O 5       O . 2 j ;     < ;   . . O . X   j w   .   . i >   . .   O O   O     5     ,   :.B.5.  7   . X .   l >   . X . + ",
". . .       . .   ;       O   O @         . .   . .   . .         O   O + . .   * o + +   6   q.J.k.  r O .       3 O   .   . . ",
"    .           ;   P ,.;   . . . .   . ;   . O O   . . .   . . . . . . . . 2   c.d.  j . ;   G 9.J   >   . . .         .   .   ",
". .   .     2 . j   4.F.~   >   . .   @ B   . . .   O .   .   . .   O @ . O @   u.4.  7 .   >       ;   . . X . . X   . .   O 3 ",
".   .   .       > - c | +   .   .   . . X . . . . .   .   . . . . . . . .   .       X   . ;   , r >   . .     .     . .   X     ",
". . . @     r.'   6 i     . . . . .   .   .   .   .     . . .   .   + 5 .   O O 6 3 . . .     . . . .   . . . . .       +   r { ",
"  .   >   5 x.$.  5 7 6       . . . . O @   .   6 @   . . .   .   j     . . .   . .   .     i O   .   . . . . .   > @   8   $.C.",
"    2 ; .       O         . .     .   3 > . . X     @   O       5   { %.  >   . . . . . .   x @   O @   . .   .   6 3   +   b #.",
"O   e e   O X +     .   . .   2 .     .     O   @.V   2 O . . + 7   x.A.L   @   . . . . . .     +     +   . . .           O     ",
"  _ x   +   @ .   . .   . . .       . . .   @   t._   7     . . 3   { 2.  &   . . . . . . . . O   l V     . . .     +     . + 7 ",
"  Z r   X     . . . .   & +   f > 7 .   . .   X     &     . . . . O     . .   . . . . . . . . 8   =.p.  X + . .   2   } (   2   ",
".     O   . . .   .   X       Y 6 . .   .     . 7 +   . .   .   .   . + . . . . . .   . . . . .   j V     . . .   &   E b   +   ",
"  2 X   . . .   . . O   ( x   .     . . . . .         + i   . . .   . X .   . .   . . . . . . . +     O . . .       @     +   . ",
".     . . . .   .   @   } C   @   . . . . . . . . . . .   . . . . . .   . . . . . . . . . . . . . @ 8 . . . . . . .   & @ . . . ",
". . . . .   . .   .   O     +   .   . . . . .     . . . . .   . .   . . . . . . . . . . . . . . . . . . . . . .   . .   .     . ",
"    O .   . . . . . .   3 X     . . .     . . . . . .   . . . . . . . . . . .   . + . . . . . . . . . . . . . . . . . . . . . . ",
". . . .   . . .   . . .   . . . . . . . . . . . . . . . . . . . . . . . . . . . . . . . . . . . . . . . . . . . . . . . . . . . ",
"O . . .   . .   . . . . . . . .   . . . . . . . . . . . . . . . . . . . . . . . . . . . . . . . . . . . . . . . . . . . . .   . ",
"  .   . . . . . . . . . . . . . . . . . . .   . . .   . . . . . . . . . . . . . . O . . . . . . . . . . . . . . . . . . . . . . ",
"  . .     . .   .   . . . .   . . . .   . . . . . . . . . . . . . . . . . + . . . O . . . . . . . . . . . . . . . . . . . . . . ",
". .   . . . . . . .   . . . . . . . . . . . . . . . . . . . . . . . . . . . . . . . . . . . . . . . . . . . . . . . . . . . . . "
};
