/* XPM */
static char *result[] = {
/* columns rows colors chars-per-pixel */
"64 64 157 2 ",
"   c #170C05",
".  c #1C0E06",
"X  c #1E1007",
"o  c #1F1209",
"O  c #201207",
"+  c #23140A",
"@  c #28170C",
"#  c #27190D",
"$  c #2A190D",
"%  c #2B1E13",
"&  c #311F11",
"*  c #2E2115",
"=  c #2F2219",
"-  c #332314",
";  c #382615",
":  c #3A2817",
">  c #332519",
",  c #3A2719",
"<  c #36281B",
"1  c #3D2B1A",
"2  c #412F1C",
"3  c #44311E",
"4  c #453421",
"5  c #493622",
"6  c #4D3925",
"7  c #513D26",
"8  c #533F29",
"9  c #55422C",
"0  c #5B462E",
"q  c #5B4631",
"w  c #5D4932",
"e  c #614C34",
"r  c #644F39",
"t  c #65523C",
"y  c #69553E",
"u  c #6D583F",
"i  c #4A4944",
"p  c #504D45",
"a  c #535046",
"s  c #595546",
"d  c #575348",
"f  c #5B574B",
"g  c #5D5A4F",
"h  c #5E5B52",
"j  c #635341",
"k  c #6A5741",
"l  c #6D5A43",
"z  c #645D4B",
"x  c #6E5D4B",
"c  c #705C44",
"v  c #715E4A",
"b  c #635F52",
"n  c #66614F",
"m  c #6B624E",
"M  c #73614D",
"N  c #656155",
"B  c #6A6455",
"V  c #676358",
"C  c #6A655A",
"Z  c #6D6A5D",
"A  c #766553",
"S  c #796752",
"D  c #7C6A56",
"F  c #736C5C",
"G  c #7C6D5A",
"H  c #7E705F",
"J  c #726E62",
"K  c #757165",
"L  c #7D7463",
"P  c #7F7966",
"I  c #7C766A",
"U  c #7E786A",
"Y  c #7A7770",
"T  c #806E5B",
"R  c #81725D",
"E  c #837664",
"W  c #867966",
"Q  c #897B65",
"!  c #827769",
"~  c #847B6B",
"^  c #8A7D6B",
"/  c #857E71",
"(  c #8A7E71",
")  c #87806F",
"_  c #8D816E",
"`  c #868174",
"'  c #8C8375",
"]  c #8F8877",
"[  c #848179",
"{  c #8D867A",
"}  c #8E897C",
"|  c #918674",
" . c #928976",
".. c #908779",
"X. c #928B7D",
"o. c #96907E",
"O. c #99937E",
"+. c #8E8A82",
"@. c #948E82",
"#. c #928E88",
"$. c #969185",
"%. c #999385",
"&. c #9B9886",
"*. c #969389",
"=. c #9A958B",
"-. c #9D998D",
";. c #969693",
":. c #9A9791",
">. c #9D9B92",
",. c #9E9E99",
"<. c #A29D8D",
"1. c #A19E93",
"2. c #A19F99",
"3. c #9FA09A",
"4. c #AAA58F",
"5. c #A4A195",
"6. c #A9A596",
"7. c #AEAA95",
"8. c #A5A49B",
"9. c #A9A69B",
"0. c #A7A99F",
"q. c #ABA99E",
"w. c #B1AD9C",
"e. c #B3B09E",
"r. c #A6A6A1",
"t. c #A9A7A1",
"y. c #A7A8A2",
"u. c #ACABA3",
"i. c #AEADA9",
"p. c #B1AEA4",
"a. c #B0AFAA",
"s. c #AFB1AB",
"d. c #B3B1A6",
"f. c #B8B5A7",
"g. c #B3B3AC",
"h. c #B8B6AC",
"j. c #BAB9AE",
"k. c #AFB1B1",
"l. c #B5B5B1",
"z. c #B8B7B2",
"x. c #B7B8B3",
"c. c #BBBBB4",
"v. c #B5B6B9",
"b. c #BDBDBA",
"n. c #C0BFB5",
"m. c #C0BFBA",
"M. c #C1C1B7",
"N. c #C3C3BC",
"B. c #BDBEC0",
"V. c #C5C5C2",
"C. c #C8C7C2",
"Z. c #C7C8C2",
"A. c #CAC9C5",
"S. c #CCCCC9",
"D. c #CFD0CF",
"F. c #D0D0CE",
"G. c #D3D3D3",
/* pixels */
"{ E ) ~ ~ ` ~ ^ ` ' ) _ X.%.' L U } { } ] ` X.X.} ` X.&.} ` } X.` ' ) ] ~ ' ' ` { [ } ` X.$.&.[ Y [ +.#.$.} } } } [ [ $.$.` } $.",
"X.%.O.o.=.4.1.6.<.<.<.4.-.5.X.-.+.&.3.&.&.&.=.%.*.=.=.=.` } } $.$.$.<.X.&.<.4.1.-.-.5.4.5.5.&.} 5.@.&.5.5.&.$.%.$.&.&.&.$.~ *.X.",
") P X.&.o.&.4.O. . .O.} } { / K ` $.$.$.*.$.$.$.@.@.$.*.} V ) ` } ` ` %.-.%.&.&.&.} $.O.] X.' P I @.%.o.&.o.o.} } o.X.} +.I C X.",
"N n F F N B m m z z B F Z Z n m Z Z B J C C h N h i h J V Z V s g N B I J C J J C a d N V Z N n B Z Z C V V N g f i i h V V N C ",
"&.&.&.%.$.&.&.%.o.<.7.w.9.9.7.5.&.<.4.7.6.5.<.1.6.8.9.d.q.5.5.<.-.-.&.6.<.<.<.&.&.` } X.*.*.=.$.O.$.:.3.o.X.o.} o.+.+.-.>.-.=.2.",
"5.6.9.6.6.6.7.4.7.d.d.f.d.f.f.d.e.f.x.j.j.f.h.j.N.c.c.M.M.g.u.w.p.f.d.f.q.6.q.q.e.q.6.3.5.-.&.=.5.-.5.3.=.-.*.$.&.-.>.0.0.u.d.9.",
"5.&.<.5.9.7.6.w.e.e.f.e.7.f.c.d.j.j.n.M.M.M.N.M.c.c.M.N.M.d.d.f.f.M.M.j.d.d.d.g.d.d.q.6.1.-.&.-.4.3.&.&.>.3.*.;.3.3.5.r.u.u.d.p.",
"q.4.q.q.6.u.h.u.e.7.d.h.j.h.c.d.f.M.j.M.M.N.M.j.M.h.n.M.c.c.c.n.c.N.N.N.M.M.n.M.c.h.d.q.6.3.-.2.3.=.3.5.3.3.>.3.0.0.i.g.d.f.j.j.",
"p.6.p.f.d.d.h.j.f.f.h.M.Z.N.c.h.j.j.c.c.m.M.f.p.j.n.h.c.n.n.n.c.M.N.N.M.M.M.M.c.h.h.d.d.p.u.2.t.8.,.8.>.,.;.;.;.:.:.>.i.r.2.8.u.",
">.w.f.f.f.d.d.j.p.w.f.j.N.N.c.j.d.d.j.c.c.j.h.d.x.b.h.j.j.j.c.M.M.N.N.M.M.n.j.j.j.f.d.h.g.i.u.t.i.i.2.2.r.r.r.8.8.8.;.>.,.>.>.,.",
"1.-.<.6.6.6.6.6.q.w.w.h.M.b.j.h.u.d.l.g.j.h.d.x.b.b.x.j.x.c.B.N.c.N.N.m.b.b.c.c.c.z.h.j.z.p.t.r.i.k.t.8.>.2.,.8.i.8.>.,.2.,.>.,.",
"<.<.<.5.<.&.5.3.-.8.0.x.b.b.h.s.q.i.g.u.s.s.d.g.b.B.x.9.q.g.x.c.g.j.g.x.g.d.g.c.z.g.i.d.g.u.8.>.y.k.r.>.=.#.:.:.;.:.>.,.>.>.,.,.",
":.9.q.w.5.&.5.6.5.3.d.j.x.x.h.s.u.u.g.l.l.x.g.g.x.b.s.s.x.c.x.x.s.x.x.c.g.x.l.x.x.c.c.c.b.k.u.i.k.v.r.r.2.1.2.>.,.>.:.:.*.*.1.>.",
"-.q.8.t.3.>.3.5.u.q.x.x.x.j.h.0.u.g.l.l.g.x.c.h.x.b.s.u.g.M.b.x.u.b.m.c.m.b.b.b.x.N.V.b.B.z.z.k.k.B.k.r.8.2.8.8.2.r.r.2.,.,.:.2.",
"t.q.8.q.u.i.i.6.d.h.c.s.h.m.x.s.j.d.l.c.c.N.c.c.x.c.x.d.n.c.A.N.c.b.N.b.b.N.c.b.m.C.S.V.b.b.b.l.v.k.i.r.i.2.t.t.t.a.a.i.t.u.i.a.",
"p.q.f.g.g.g.c.u.h.j.m.N.N.N.N.Z.A.B.V.Z.V.V.M.b.c.m.N.N.A.N.F.N.N.A.A.Z.V.N.V.C.C.S.D.S.N.V.V.m.v.v.k.k.g.u.l.l.i.l.x.l.a.l.g.a.",
"p.p.p.h.c.a.z.h.c.c.N.A.F.F.S.A.N.S.F.S.A.A.N.S.A.A.A.S.S.S.F.S.A.S.A.S.S.S.C.F.C.S.G.G.S.V.C.m.B.m.l.l.n.z.m.B.n.l.v.a.a.a.t.t.",
"p.6.w.a.c.z.g.a.c.M.N.N.A.A.N.N.N.M.N.A.N.A.A.N.N.S.N.A.D.S.F.N.A.A.C.C.C.C.S.C.C.S.G.S.V.V.C.m.b.B.v.v.v.z.t.l.a.t.t.t.l.l.a.l.",
"q.7.t.w.u.l.h.a.g.c.c.M.S.S.N.n.M.j.M.A.S.N.N.A.S.S.N.N.N.F.S.F.A.F.S.A.C.C.C.C.C.S.F.S.C.C.C.B.B.N.c.c.n.l.t.t.l.a.a.i.l.m.m.m.",
"h.t.t.q.p.f.z.a.g.x.h.M.S.A.M.n.M.j.c.N.N.N.N.A.A.N.A.N.N.N.N.N.C.A.N.N.m.N.m.n.B.A.A.A.B.V.B.n.N.N.v.a.a.z.a.a.l.n.B.n.l.v.l.l.",
"g.l.g.q.p.g.g.u.p.b.c.c.Z.Z.c.j.n.n.c.N.N.M.N.N.N.N.Z.m.A.Z.Z.N.C.C.n.n.z.m.m.m.V.C.B.V.m.m.n.z.b.B.v.u.u.z.a.p.a.v.a.n.l.v.n.l.",
"s.x.d.u.p.d.p.u.p.c.j.x.V.Z.x.g.m.N.h.h.M.M.M.M.m.Z.M.b.N.N.b.M.n.V.m.a.i.n.n.g.B.V.m.v.m.m.z.a.c.v.k.u.a.v.k.t.a.a.t.a.a.a.l.l.",
"i.l.u.6.q.s.u.u.p.c.j.x.N.b.s.d.c.m.c.h.j.j.j.h.j.m.c.j.h.b.c.c.n.m.z.g.9.n.g.g.n.m.n.n.a.a.n.a.c.b.a.u.i.v.v.a.a.t.t.k.a.a.a.a.",
"u.u.q.>.q.d.l.g.s.h.h.h.b.b.h.p.f.c.c.c.n.b.g.d.j.N.M.h.c.N.M.c.B.V.l.g.p.l.n.z.z.m.z.m.g.g.z.u.z.m.z.a.t.i.k.z.a.a.t.n.k.a.k.a.",
"d.p.q.5.u.g.g.g.d.g.d.g.c.m.p.q.h.c.f.c.N.c.j.x.c.V.M.h.h.j.M.c.n.V.g.g.l.a.f.z.n.z.m.n.g.n.z.u.i.n.l.t.2.t.t.t.2.t.n.a.i.a.n.t.",
"i.u.5.9.p.u.d.p.g.l.u.g.x.B.s.u.u.g.h.j.b.j.j.M.c.M.c.u.p.p.j.x.m.V.z.z.z.p.g.a.a.n.g.z.v.n.h.p.a.a.a.t.t.t.k.t.1.2.a.a.t.t.a.t.",
"u.9.6.6.q.q.q.d.x.g.9.u.h.x.i.q.d.p.p.g.x.j.j.j.x.x.x.u.s.h.p.p.a.l.l.l.h.a.a.u.g.n.u.p.m.m.l.u.i.a.a.t.t.t.a.a.t.a.t.t.t.t.a.i.",
"h.q.9.5.9.8.5.q.p.d.9.u.j.x.q.q.u.g.g.g.c.x.h.p.f.h.f.u.p.b.x.p.a.l.g.z.z.n.a.p.z.l.a.p.a.z.a.u.2.p.a.2.2.t.a.a.t.a.a.a.a.k.m.a.",
"z.f.w.f.p.6.9.q.d.h.p.g.x.c.s.d.c.x.h.g.h.h.f.p.c.M.h.u.u.d.c.p.f.c.n.h.p.a.h.d.h.l.d.u.d.a.d.2.t.t.p.t.t.a.a.a.t.t.a.m.v.v.m.a.",
"p.q.q.q.p.6.6.q.u.h.q.u.c.x.p.s.g.d.g.d.u.w.p.p.l.x.s.8.s.d.p.0.p.a.a.p.@.t.g.p.a.m.p.q.a.h.t.q.d.9.9.2.t.v.a.k.t.i.a.m.m.k.a.k.",
"q.u.u.q.q.6.6.u.q.p.q.0.s.l.s.p.u.q.u.q.p.d.d.0.0.p.s.i.x.x.u.6.8.u.w.6.$.d.p.t.p.n.t.q.a.g.a.p.p.p.a.t.t.i.k.k.k.v.k.k.k.i.t.k.",
"q.9.9.q.5.5.<.5.5.0.8.8.s.y.y.i.0.9.9.0.s.0.i.3.3.s.y.y.u.g.i.3.8.p.a.t.q.h.p.9.2.d.p.u.u.a.2.t.t.p.a.a.a.v.k.a.a.a.a.a.i.a.i.i.",
"u.5.8.5.9.6.5.3.6.0.8.8.y.s.u.i.0.8.0.3.3.3.3.-.3.3.3.3.3.i.s.6.8.p.u.i.6.p.d.u.g.g.u.0.2.t.r.q.0.u.p.a.i.x.v.l.i.a.i.a.l.i.2.t.",
"p.6.3.<.5.5.0.6.8.6.0.3.y.u.u.8.5.6.q.0.i.s.g.p.p.s.u.y.g.g.s.9.8.q.q.u.2.u.p.u.i.s.u.0.q.t.t.8.2.u.u.a.i.l.x.d.u.d.u.a.l.i.2.t.",
"g.u.8.u.-.&.3.3.5.8.0.8.u.y.9.8.5.0.0.3.s.s.p.u.0.u.0.8.i.s.s.q.6.p.9.q.8.s.u.8.u.d.u.2.8.i.i.u.0.q.u.a.u.i.g.u.u.u.p.p.l.a.q.u.",
"g.p.d.x.8.-.-.3.3.>.>.=.0.y.u.0.5.6.6.1.0.u.e.0.u.p.q.9.i.x.g.0.1.6.8.q.8.p.u.y.i.d.u.0.1.u.u.u.q.u.i.d.i.l.g.l.u.u.u.p.a.8.u.u.",
"s.u.8.6.8.&.&.&.1.3.&.3.8.8.y.0.1.5.1.0.s.0.0.5.8.0.8.8.p.s.u.8.5.6.9.0.8.p.u.0.i.u.8.q.9.8.q.2.>.u.u.u.i.s.g.d.p.t.q.t.p.8.p.u.",
"t.3.3.8.8.-.-.;.-.&.>.3.8.3.0.8.<.&.<.0.x.s.u.8.5.8.3.3.u.p.q.6.<.9.-.5.8.w.0.0.i.r.y.0.6.u.u.5.2.0.t.i.i.t.s.l.p.t.q.q.q.2.2.t.",
"2.8.>.5.-.3.3.3.-.o.-.-.3.-.>.0.0.3.<.8.i.s.p.8.8.8.6.3.0.q.u.6.>.6.&.5.5.6.-.3.r.8.r.8.8.r.t.q.2.1.>.>.2.>.u.i.2.2.2.2.1.$.@.<.",
"1.0.u.0.4.3.1.3.3.3.3.3.y.3.3.8.>.-.>.8.0.3.g.0.8.0.6.6.u.u.u.5.&.4.<.5.0.9.5.3.>.:.,.,.,.>.2.>.-.*.@.*.$.-.:.>.=.=.=.=.*.@.=.:.",
"-.-.:.p.q.1.2.p.0.u.y.0.0.8.y.r.-.3.3.6.0.3.d.u.q.q.5.q.q.q.q.q.5.5.9.6.q.i.0.q.0.q.u.u.9.5.p.u.1.<.1.w.6.q.q.t.2.*.>.1.-.<.2.2.",
"-.>.1.p.q.6.8.u.i.0.u.u.u.8.8.8.3.1.0.0.0.0.d.u.u.u.q.0.q.u.u.p.0.9.q.9.u.i.u.g.u.u.u.q.9.9.u.q.1.1.1.9.9.u.q.p.8.#.@.@.=.:.:.=.",
"1.1.1.6.5.<.2.2.0.5.>.3.r.>.>.>.&.&.3.3.&.3.0.0.q.u.8.8.6.8.u.q.9.9.9.9.0.u.u.0.0.5.6.8.5.5.1.1.1.1.<.1.1.1.2.2.*.:.=.+.#.:.=.<.",
"1.<.8.6.1.1.-.1.3.>.-.3.>.,.:.-.&.3.3.-.3.3.0.6.8.6.2.8.0.0.0.t.8.5.&.3.8.6.8.0.5.1.5.8.1.5.1.<.<.<.=.1.1.1.2.2.-.=.:.*.@.<.:.1.",
"8.6.q.6.1.-.%.&.&.$.=.-.3.5.<.3.3.;.&.3.-.>.8.8.1.5.1.9.8.5.6.8.3.$.=.>.3.5.>.>.:.>.<.-.=.>.<.5.1.1.%.1.2.<.2.t.2.=.#.=.@.=.:.1.",
"8.8.6.5.<.%.*.*.=.=.=.3.5.8.3.3.5.>.>.;.3.3.8.3.2.1.&.1.1.1.8.2.3.-.$.>.-.5.&.$.&.5.5.&.-.1.1.1.1.<.*.2.2.1.1.1.1.*.=.:.1.=.%.2.",
"2.>.1.>.&.1.1.-.-.-.=.=.4.8.<.5.-.>.3.-.*.-.3.8.-.1.&.-.1.1.2.1.>.3.$.$.*.>.:.*.-.>.2.2.-.%.1.2.=.<.=.<.:.=.:.:.:.=.:.1.2.=.#.=.",
">.>.-.1.-.2.1.&.&.&.>.<.&.3.3.3.=.;.>.-.3.>.&.<.-.*.1.-.-.1.>.<.&.-.&.*.=.:.>.>.:.>.1.-.-.%.-.2.=.:.:.=.<.<.=.:.:.1.1.=.#.%.{ %.",
"1.<.1.1.<.&.1.<.&.-.1.1.<.@.>.-.-.=.>.=.>.>.*.X.X.%.=.*.=.=.=.*.=.:.%.=.:.:.:.1.2.1.<.1.<.=.<.2.1.=.@.=.=.=.:.=.=.:.:.%.=.=.@.=.",
"2.5.5.5.1.=.1.1.1.1.1.-.X.@.-.>.-.2.>.:.:.>.<.%.=.1.1.-.=.<.1.1.1.2.=.=.:.1.=.<.2.9.2.<.=.<.2.2.=.1.=.%.=.=.1.1.=.#.:.%.<.:.%.:.",
":.1.>.-.=.=.=.%.1.>.%.*.$.@.=.@.@.} -.#.+.` *.%.>.%.@.:.-.=.1.:.:.<.#.%.=.<.=.%.<.1.<.%.%.%.4.6.=.1.%.@.<.=.=.1.@.#.#.#.=.#...%.",
"=.<.*.=.%.&.@.@.1.<.-.$.+.} X.@.X.{ @.@.} ` #.@.-.%.$.*.@.%.<.=.%.=.@.X.%.=.%.%.=.=.<.@.@.o.%.%.%.%.( %.=.=.%.:.@.....X.#...( ..",
"%.@.@.=.@.*.*...*.-.=.=.$.' } @.' / [ X.' { $.X.$.@.%.*...@.-.$.@.#.@.@.%.=.@.%.X.=.%.%.@.( X.%.%.@.( %.( =.@.*.....@.@.....( ..",
"o.%.@.@.{ X.{ [ X.&.$.$.X.' } } ` ` @.$.X.X.@.@.X...{ ..X.@.@.X.X...X...X.<.%.( ( %.%.%.o.( %.O.....( ( ( ( ( ( ..( ( ( ..( ..( ",
"| ' ( { / ~ / ( ' @.{ { ' ` { } ' } @.%.X.X.{ ' ' ......| ..{ ' ( ( ( ..( %.%.@.X.%.%.X.X.|  .| ( @.( ( ( ( ( ( E ! ( ( ( ! ( ( ",
"W ~ ! ! ! ! ! I ~ ( / ~ / U ~ / ' X. . . . .| ..|  . ...' | ^ ! ^ ^ ( ( ( ( ( ( ( X.@.( ^  . . ...( ( ( ^ W W ^ ! T E ^ ( ! ! ! ",
"_ _ W ! L ! ! L ! ^ L ! ~ ^ ^ ` ..( ( ( ^ ^ (  . . .|  .| ' ' E ( ( W ^ ( | ( _ _ | _ | |  ._ Q ^ ( ^ ( Q T E W E T T T ! ! T A ",
"A E W R G H G G H E G L E E ! ^ ( W ^ E W E W ( ^ Q ^ W Q E E E W W E W W W Q Q Q ^ _ Q _ Q Q R T T R R T T T E T T T T T T A x ",
"j x G M m S M M S S A x v A S G L G E L T S A S T S D M D D G G T T T S S S v T S T T T T T T T v v c c r k l c y y r k k x x p ",
"y l u l c r t t l u k u k M v t k M x b v y k y y u u t u l S S v v t k k y y t u v u k u u u u t e e t e e t 8 5 w w q w q r k ",
"w t e e e 0 9 9 9 9 0 q q w 0 q q 9 8 8 6 6 6 8 7 8 7 7 9 0 0 q 9 0 9 9 8 5 7 7 8 7 8 8 q 8 8 e 8 7 6 7 5 5 6 5 3 3 4 4 3 , 3 q ",
"3 6 5 5 2 4 4 1 3 4 4 3 3 3 1 3 2 4 4 < 1 > % = ; , ; 2 3 3 4 3 1 1 : ; ; 2 ; ; ; , ; 1 , ; 2 2 2 & & & , & & & & & & & & & & , ",
"- > * $ % % % % % % * - = % = < = < < = = = % = % % & & * * > < > - , < % & & & & - > & & & $ @ @ $ $ & $ @ @ @ & @ @ @ @ @ & & ",
"+ + o o o o . o O O o + O O + O # o # # + # o # o o o + + o + # + # @ @ O O @ @ + + @ @ @ + X + X X . . X X X X X X X     . . . "
};
